<svg width="18" height="27" viewBox="0 0 18 27" fill="none" xmlns="http://www.w3.org/2000/svg">
<path fill-rule="evenodd" clip-rule="evenodd" d="M8.74413 0.25497C8.2763 0.832759 7.9442 1.62945 7.88829 2.30815C7.87005 2.52957 7.91452 4.2325 7.98717 6.09245C8.11627 9.39874 8.11615 10.3754 7.98652 11.2455C7.75168 12.822 7.23403 14.3499 6.46802 15.7276C6.23229 16.1516 5.75428 16.9347 5.68591 17.0091C5.67578 17.0201 5.42217 16.9745 5.12237 16.9078C4.46263 16.761 4.15883 16.5727 3.92144 16.1634C3.40975 15.2812 4.11807 14.2198 5.22799 14.2054C5.40125 14.2031 5.54281 14.2005 5.54251 14.1995C5.54215 14.1986 5.32907 12.6468 5.06891 10.7512C4.62594 7.52334 4.58237 7.26799 4.38216 6.72917C3.83668 5.26114 2.74339 3.83588 1.43434 2.88637C1.00949 2.5782 0.258496 2.11759 0.0806422 2.05613C0.0130528 2.03278 0 3.61451 0 11.8302V21.6322H2.49908H4.99816L5.06915 21.9409C5.26291 22.7837 5.886 23.9866 6.52476 24.7508C6.93739 25.2446 7.62777 25.8632 8.21289 26.2637C8.41923 26.4049 8.67248 26.6283 8.77565 26.7602C8.87889 26.8921 8.97926 27 8.99875 27C9.01824 27 9.13315 26.8806 9.25415 26.7346C9.37514 26.5887 9.66922 26.339 9.90763 26.1797C10.8043 25.5809 11.8159 24.4689 12.2984 23.5517C12.5563 23.0614 12.8385 22.3426 12.9309 21.9409L13.0018 21.6322H15.5009H18V11.836C18 6.44806 17.9793 2.03976 17.954 2.03976C17.9288 2.03976 17.6759 2.17868 17.392 2.34841C15.9052 3.23758 14.8442 4.32939 14.0665 5.77038C13.4756 6.86514 13.4583 6.9404 12.9621 10.5692C12.7175 12.3583 12.5024 13.9074 12.4841 14.0116L12.4509 14.2012L12.769 14.2053C13.8905 14.2199 14.595 15.2732 14.0786 16.1634C13.8412 16.5727 13.5374 16.761 12.8776 16.9078C12.5778 16.9745 12.3239 17.0201 12.3134 17.0091C12.2201 16.9112 11.6753 15.9929 11.3922 15.4561C10.8163 14.3645 10.374 13.1207 10.1355 11.9216C9.9084 10.7804 9.86811 9.97368 9.94268 8.0598C10.1602 2.47369 10.1624 2.34868 10.0489 1.86901C9.99077 1.62344 9.83908 1.22133 9.71177 0.975543C9.48135 0.530607 9.09417 0 9 0C8.97282 0 8.85767 0.114763 8.74413 0.25497ZM1.95419 5.38357C2.11732 5.5963 2.37177 5.98777 2.51964 6.25348C3.05625 7.21786 3.07317 7.28801 3.49069 10.2793C3.70085 11.785 3.8731 13.0411 3.8734 13.0706C3.8737 13.1001 3.75479 13.192 3.60912 13.2749C3.1804 13.5189 2.72736 14.002 2.49956 14.4584L2.2947 14.8687L1.89238 14.8687L1.49007 14.8688V9.87019C1.49007 5.58229 1.50199 4.88045 1.57387 4.93418C1.61994 4.96859 1.79106 5.17085 1.95419 5.38357ZM16.5099 9.87674V14.8688H16.1008H15.6917L15.5864 14.6138C15.3764 14.1052 14.9399 13.6108 14.4238 13.2968C14.2763 13.2071 14.1484 13.1291 14.1396 13.1234C14.0865 13.0896 14.8624 7.7439 14.9731 7.38072C15.1378 6.84013 15.7575 5.72244 16.1561 5.24702C16.3231 5.04771 16.4711 4.88469 16.4849 4.88469C16.4987 4.88469 16.5099 7.13111 16.5099 9.87674ZM9.28824 14.3566C9.56938 15.1389 10.1496 16.3396 10.5342 16.9354C10.7726 17.3047 10.7745 17.3119 10.6483 17.3575C10.1381 17.5418 9.61492 17.8197 9.3324 18.0565L9 18.3351L8.65824 18.0487C8.34371 17.7851 7.59993 17.3916 7.41606 17.3916C7.3732 17.3916 7.32296 17.3695 7.30442 17.3425C7.28589 17.3155 7.47095 16.9389 7.71574 16.5056C8.19399 15.659 8.53093 14.9218 8.80087 14.1315C8.89403 13.8589 8.98361 13.6362 9 13.6367C9.01639 13.6373 9.14609 13.9612 9.28824 14.3566ZM2.43447 16.5084C2.79501 17.357 3.57085 17.9553 4.62546 18.1983C4.87895 18.2567 5.09764 18.3146 5.1114 18.327C5.12517 18.3394 5.09179 18.5386 5.0372 18.7697C4.9826 19.0008 4.92276 19.4375 4.90411 19.7401L4.87031 20.2903H3.18016H1.49007V18.2505V16.2107H1.899H2.30793L2.43447 16.5084ZM16.5099 18.2514V20.2919L14.8262 20.2777L13.1424 20.2634L13.102 19.7266C13.0799 19.4314 13.0179 19.0001 12.9642 18.7682C12.9106 18.5363 12.8773 18.3371 12.8902 18.3255C12.9031 18.3139 13.121 18.2567 13.3745 18.1983C14.4581 17.9487 15.3098 17.2692 15.6135 16.412L15.6847 16.2107H16.0974H16.5099V18.2514ZM7.19869 18.7898C7.76772 19.0459 8.13779 19.4994 8.20699 20.0255L8.24179 20.2903H7.30079H6.35978L6.39453 19.8466C6.41366 19.6025 6.47344 19.2281 6.52738 19.0145C6.64266 18.5581 6.66632 18.5502 7.19869 18.7898ZM11.4081 18.7202C11.4838 18.9428 11.6225 19.7892 11.6225 20.0289V20.2903H10.6904H9.75821L9.79301 20.0255C9.86221 19.4994 10.2323 19.0459 10.8013 18.7898C11.2162 18.6031 11.3625 18.5863 11.4081 18.7202ZM8.22517 23.0579V24.4837L7.97638 24.2254C7.43889 23.6675 6.93852 22.8428 6.67979 22.0883C6.61184 21.8902 6.55629 21.7067 6.55629 21.6802C6.55629 21.6538 6.93179 21.6322 7.39073 21.6322H8.22517V23.0579ZM11.4437 21.7084C11.4437 21.8251 11.0915 22.6988 10.9226 23.001C10.7056 23.3894 10.3102 23.9279 10.0236 24.2254L9.77483 24.4837V23.0579V21.6322H10.6093C11.2905 21.6322 11.4437 21.6462 11.4437 21.7084Z" fill="white"/>
</svg>
