<svg width="30" height="30" viewBox="0 0 30 30" fill="none" xmlns="http://www.w3.org/2000/svg">
<path fill-rule="evenodd" clip-rule="evenodd" d="M15 30C23.2843 30 30 23.2843 30 15C30 6.71573 23.2843 0 15 0C6.71573 0 0 6.71573 0 15C0 23.2843 6.71573 30 15 30ZM19.6733 8.66224C19.8707 8.53038 20.1027 8.46 20.34 8.46C20.6583 8.46 20.9635 8.58643 21.1885 8.81147C21.4136 9.03652 21.54 9.34174 21.54 9.66C21.54 9.89734 21.4696 10.1293 21.3378 10.3267C21.2059 10.524 21.0185 10.6778 20.7992 10.7687C20.58 10.8595 20.3387 10.8832 20.1059 10.8369C19.8731 10.7906 19.6593 10.6764 19.4915 10.5085C19.3236 10.3407 19.2094 10.1269 19.1631 9.89411C19.1168 9.66133 19.1405 9.42005 19.2313 9.20078C19.3222 8.98151 19.476 8.79409 19.6733 8.66224ZM24.48 8.45C24.7652 9.2294 24.9206 10.0503 24.94 10.88C25 11.94 25 12.28 25 15C25 16.6746 24.9773 17.4471 24.9598 18.0409C24.9489 18.4116 24.94 18.7126 24.94 19.12C24.9206 19.9497 24.7652 20.7706 24.48 21.55C24.2283 22.2182 23.8322 22.8226 23.32 23.32C22.8248 23.8326 22.2196 24.2258 21.55 24.47C20.7727 24.7638 19.9508 24.9228 19.12 24.94C18.06 25 17.72 25 15 25C12.28 25 11.94 25 10.88 24.94C10.0492 24.9228 9.22734 24.7638 8.45 24.47C7.78168 24.2234 7.17693 23.8304 6.68 23.32C6.16743 22.8248 5.77418 22.2196 5.53 21.55C5.23616 20.7727 5.07721 19.9508 5.06 19.12C5 18.06 5 17.72 5 15C5 12.28 5 11.94 5.06 10.88C5.07721 10.0492 5.23616 9.22734 5.53 8.45C5.77418 7.78044 6.16743 7.17518 6.68 6.68C7.17693 6.16956 7.78168 5.77665 8.45 5.53C9.22734 5.23616 10.0492 5.07721 10.88 5.06C11.94 5 12.28 5 15 5C17.72 5 18.06 5 19.12 5.06C19.9508 5.07721 20.7727 5.23616 21.55 5.53C22.2196 5.77418 22.8248 6.16743 23.32 6.68C23.83 7.17928 24.2257 7.78313 24.48 8.45ZM22.8 20.86C23.0178 20.2637 23.1327 19.6348 23.14 19C23.19 18 23.2 17.63 23.2 15C23.2 12.37 23.19 12 23.14 11C23.1373 10.3518 23.0223 9.70893 22.8 9.1C22.6338 8.68273 22.3777 8.30718 22.05 8C21.7223 7.64285 21.3144 7.36865 20.86 7.2C20.2637 6.98225 19.6348 6.86728 19 6.86C18 6.8 17.63 6.8 15.0001 6.8H15C13.3732 6.8 12.6111 6.82296 12.0297 6.84047C11.6712 6.85127 11.3814 6.86 11 6.86C10.352 6.86508 9.70955 6.98004 9.1 7.2C8.67929 7.3831 8.30381 7.65617 8 8C7.65626 8.30166 7.38605 8.67791 7.21 9.1C6.98295 9.70794 6.86448 10.3511 6.86 11C6.8 12 6.8 12.37 6.8 14.9999V15C6.8 16.6268 6.82296 17.3889 6.84047 17.9703C6.85127 18.3288 6.86 18.6186 6.86 19C6.88044 19.6519 7.01586 20.2952 7.26 20.9C7.41484 21.3352 7.66809 21.7287 8 22.05C8.31136 22.3728 8.68578 22.6281 9.1 22.8C9.7246 23.0109 10.3809 23.1123 11.04 23.1C12.04 23.16 12.41 23.16 15.04 23.16C17.67 23.16 18.04 23.15 19.04 23.1C19.6748 23.0927 20.3037 22.9778 20.9 22.76C21.3332 22.5964 21.7256 22.3405 22.05 22.01C22.3839 21.6884 22.6403 21.2952 22.8 20.86ZM12.1527 10.7394C12.995 10.1745 13.9858 9.87198 15 9.87C15.6749 9.86736 16.3436 9.99818 16.9678 10.2549C17.5919 10.5117 18.1592 10.8893 18.6369 11.3661C19.1146 11.8428 19.4933 12.4093 19.7512 13.033C20.0092 13.6566 20.1413 14.3251 20.14 15C20.14 16.0142 19.8394 17.0056 19.2761 17.849C18.7129 18.6924 17.9123 19.35 16.9755 19.7385C16.0387 20.1271 15.0077 20.2293 14.0129 20.0321C13.018 19.835 12.1039 19.3474 11.3861 18.631C10.6682 17.9145 10.1789 17.0014 9.97979 16.0069C9.78072 15.0125 9.88089 13.9813 10.2676 13.0438C10.6544 12.1062 11.3103 11.3043 12.1527 10.7394ZM13.15 17.7688C13.6976 18.1347 14.3414 18.33 15 18.33C15.4373 18.33 15.8703 18.2439 16.2743 18.0765C16.6784 17.9092 17.0454 17.6639 17.3547 17.3547C17.6639 17.0454 17.9092 16.6784 18.0765 16.2743C18.2439 15.8703 18.33 15.4373 18.33 15C18.33 14.3414 18.1347 13.6976 17.7688 13.15C17.4029 12.6023 16.8828 12.1755 16.2743 11.9235C15.6659 11.6714 14.9963 11.6055 14.3503 11.734C13.7044 11.8625 13.111 12.1796 12.6453 12.6453C12.1796 13.111 11.8625 13.7044 11.734 14.3503C11.6055 14.9963 11.6714 15.6659 11.9235 16.2743C12.1755 16.8828 12.6023 17.4029 13.15 17.7688Z" fill="#F9224B"/>
</svg>
