<svg width="125" height="24" viewBox="0 0 125 24" fill="none" xmlns="http://www.w3.org/2000/svg">
<path d="M0 10.56V0H4.78706V10.3954C4.78706 11.84 5.22057 13.0194 6.08759 13.9337C6.9546 14.8297 8.07989 15.2777 9.46343 15.2777C10.8285 15.2777 11.9261 14.8297 12.7563 13.9337C13.5864 13.0194 14.0014 11.84 14.0014 10.3954V0H18.7885V10.56C18.7885 13.2297 17.9215 15.4057 16.1874 17.088C14.4718 18.7703 12.2305 19.6114 9.46343 19.6114C6.6779 19.6114 4.39966 18.7703 2.62873 17.088C0.876244 15.3874 0 13.2114 0 10.56Z" fill="#FFC32B"/>
<path d="M25.6854 19.2H20.3726L30.1127 0H32.2987L42.0388 19.2H36.6984L35.4532 16.5394H26.9306L25.6854 19.2ZM28.8398 12.48H33.5439L31.1919 7.46057L28.8398 12.48Z" fill="#5B7FFF"/>
<path d="M52.3754 19.512C49.6636 19.512 47.4523 18.704 45.7413 17.088C44.0303 15.456 43.1748 13.36 43.1748 10.8C43.1748 8.23999 44.0303 6.152 45.7413 4.536C47.4523 2.904 49.6636 2.088 52.3754 2.088C54.4092 2.088 56.2089 2.576 57.7746 3.552V7.17599C56.5317 5.944 54.8934 5.328 52.8596 5.328C51.1002 5.328 49.6555 5.84 48.5257 6.864C47.4119 7.87199 46.855 9.18399 46.855 10.8C46.855 12.4 47.4119 13.712 48.5257 14.736C49.6394 15.744 51.0841 16.248 52.8596 16.248C54.9095 16.248 56.5479 15.64 57.7746 14.424V18.048C56.2089 19.024 54.4092 19.512 52.3754 19.512Z" fill="white"/>
<path d="M60.2834 1.92H63.6731V8.20799C64.4479 7.68 65.4083 7.416 66.5543 7.416C68.233 7.416 69.5566 7.888 70.5251 8.832C71.4936 9.77599 71.9778 11.064 71.9778 12.696V19.2H68.5881V12.672C68.5881 11.936 68.346 11.36 67.8618 10.944C67.3775 10.512 66.7238 10.296 65.9006 10.296C64.9967 10.296 64.2542 10.608 63.6731 11.232V19.2H60.2834V1.92Z" fill="white"/>
<path d="M78.7534 19.416C77.2845 19.416 76.1223 19.096 75.2668 18.456C74.4275 17.8 74.0078 16.92 74.0078 15.816C74.0078 14.68 74.4517 13.792 75.3395 13.152C76.2434 12.512 77.4863 12.192 79.0681 12.192C79.7138 12.192 80.4724 12.264 81.344 12.408V12.072C81.344 11.512 81.0858 11.088 80.5693 10.8C80.0689 10.496 79.3506 10.344 78.4144 10.344C76.9778 10.344 75.8479 10.656 75.0247 11.28V8.328C76.1385 7.704 77.4943 7.392 79.0923 7.392C80.884 7.392 82.2722 7.768 83.2568 8.52C84.2414 9.27199 84.7337 10.328 84.7337 11.688V15.936C84.7337 16.608 85.1695 16.944 86.0412 16.944V19.08C85.6861 19.288 85.1857 19.392 84.54 19.392C83.5231 19.392 82.708 19.088 82.0946 18.48C81.2391 19.104 80.1254 19.416 78.7534 19.416ZM79.8187 14.52C79.0601 14.52 78.4628 14.632 78.027 14.856C77.6073 15.064 77.3975 15.36 77.3975 15.744C77.3975 16.08 77.5751 16.344 77.9302 16.536C78.2853 16.712 78.7614 16.8 79.3587 16.8C80.198 16.8 80.8598 16.576 81.344 16.128V14.688C80.7307 14.576 80.2222 14.52 79.8187 14.52Z" fill="white"/>
<path d="M87.7583 19.2V7.68H90.7606L90.9301 8.66399C91.7372 7.832 92.8186 7.416 94.1745 7.416C94.578 7.416 94.9816 7.45599 95.3851 7.53599V10.752C94.917 10.448 94.3198 10.296 93.5934 10.296C92.5927 10.296 91.7775 10.68 91.148 11.448V19.2H87.7583Z" fill="white"/>
<path d="M97.2161 19.2V7.68H100.606V19.2H97.2161ZM96.8772 3.86399C96.8772 3.288 97.0628 2.816 97.434 2.448C97.8214 2.08 98.3137 1.896 98.911 1.896C99.5082 1.896 99.9924 2.08 100.364 2.448C100.735 2.816 100.921 3.288 100.921 3.86399C100.921 4.45599 100.735 4.93599 100.364 5.30399C99.9924 5.67199 99.5082 5.85599 98.911 5.85599C98.3137 5.85599 97.8214 5.67199 97.434 5.30399C97.0628 4.93599 96.8772 4.45599 96.8772 3.86399Z" fill="white"/>
<path d="M107.626 7.68H110.774V10.536H107.626V14.712C107.626 15.256 107.796 15.704 108.135 16.056C108.49 16.392 108.95 16.56 109.515 16.56C110.031 16.56 110.451 16.424 110.774 16.152V18.888C110.112 19.24 109.361 19.416 108.522 19.416C107.279 19.416 106.254 19.056 105.447 18.336C104.656 17.616 104.261 16.68 104.261 15.528V10.536H102.324V7.68H104.261V6.096L107.626 4.464V7.68Z" fill="white"/>
<path d="M116.647 17.52L111.611 7.68H115.194L118.318 14.04L121.417 7.68H125L116.671 24H113.015L116.647 17.52Z" fill="white"/>
</svg>
