<svg width="43" height="20" viewBox="0 0 43 20" fill="none" xmlns="http://www.w3.org/2000/svg">
<path d="M0 10.56V0H4.78706V10.3954C4.78706 11.84 5.22057 13.0194 6.08759 13.9337C6.9546 14.8297 8.07989 15.2777 9.46343 15.2777C10.8285 15.2777 11.9261 14.8297 12.7563 13.9337C13.5864 13.0194 14.0014 11.84 14.0014 10.3954V0H18.7885V10.56C18.7885 13.2297 17.9215 15.4057 16.1874 17.088C14.4718 18.7703 12.2305 19.6114 9.46343 19.6114C6.6779 19.6114 4.39966 18.7703 2.62873 17.088C0.876244 15.3874 0 13.2114 0 10.56Z" fill="#FFC32B"/>
<path d="M25.6854 19.2H20.3726L30.1127 0H32.2987L42.0388 19.2H36.6984L35.4532 16.5394H26.9306L25.6854 19.2ZM28.8398 12.48H33.5439L31.1919 7.46057L28.8398 12.48Z" fill="#5B7FFF"/>
</svg>
